# MagicaVoxel @ ephtracy

# material
mtllib BottonBlackGreen.mtl

# normals
vn -1 0 0
vn 1 0 0
vn 0 0 1
vn 0 0 -1
vn 0 -1 0
vn 0 1 0

# texcoords
vt 0.880859 0.5
vt 0.994141 0.5

# verts
v -1.5 1 0.5
v -1.5 2 0.5
v -1.5 2 -0.5
v -1.5 1 -0.5
v -1.5 0 0.5
v -1.5 0 -0.5
v -1.5 3 0.5
v -1.5 3 -0.5
v 1.5 1 0.5
v 1.5 1 -0.5
v 1.5 2 -0.5
v 1.5 2 0.5
v 1.5 0 0.5
v 1.5 0 -0.5
v 1.5 3 -0.5
v 1.5 3 0.5
v 0.5 1 0.5
v 0.5 2 0.5
v -0.5 1 0.5
v -0.5 2 0.5
v -0.5 0 0.5
v 0.5 0 0.5
v 0.5 3 0.5
v -0.5 3 0.5
v 0.5 1 -0.5
v 0.5 2 -0.5
v -0.5 1 -0.5
v -0.5 2 -0.5
v -0.5 0 -0.5
v 0.5 0 -0.5
v 0.5 3 -0.5
v -0.5 3 -0.5

# faces

usemtl palette

f 1/2/1 2/2/1 3/2/1 4/2/1

f 5/2/1 1/2/1 4/2/1 6/2/1

f 2/2/1 7/2/1 8/2/1 3/2/1

f 9/2/2 10/2/2 11/2/2 12/2/2

f 13/2/2 14/2/2 10/2/2 9/2/2

f 12/2/2 11/2/2 15/2/2 16/2/2

f 17/2/3 9/2/3 12/2/3 18/2/3

f 19/1/3 17/1/3 18/1/3 20/1/3

f 1/2/3 19/2/3 20/2/3 2/2/3

f 5/2/3 21/2/3 19/2/3 1/2/3

f 21/2/3 22/2/3 17/2/3 19/2/3

f 22/2/3 13/2/3 9/2/3 17/2/3

f 18/2/3 12/2/3 16/2/3 23/2/3

f 20/2/3 18/2/3 23/2/3 24/2/3

f 2/2/3 20/2/3 24/2/3 7/2/3

f 25/2/4 26/2/4 11/2/4 10/2/4

f 27/1/4 28/1/4 26/1/4 25/1/4

f 4/2/4 3/2/4 28/2/4 27/2/4

f 6/2/4 4/2/4 27/2/4 29/2/4

f 29/2/4 27/2/4 25/2/4 30/2/4

f 30/2/4 25/2/4 10/2/4 14/2/4

f 26/2/4 31/2/4 15/2/4 11/2/4

f 28/2/4 32/2/4 31/2/4 26/2/4

f 3/2/4 8/2/4 32/2/4 28/2/4

f 5/2/5 6/2/5 29/2/5 21/2/5

f 21/2/5 29/2/5 30/2/5 22/2/5

f 22/2/5 30/2/5 14/2/5 13/2/5

f 23/2/6 16/2/6 15/2/6 31/2/6

f 24/2/6 23/2/6 31/2/6 32/2/6

f 7/2/6 24/2/6 32/2/6 8/2/6

# numNormals 6
# numTexCoords 2
# numVerts 32
# numFaces 30
