# MagicaVoxel @ ephtracy

# material
mtllib BottonRed.mtl

# normals
vn -1 0 0
vn 1 0 0
vn 0 0 1
vn 0 0 -1
vn 0 -1 0
vn 0 1 0

# texcoords
vt 0.841797 0.5

# verts
v -3.5 2 0.5
v -3.5 3 0.5
v -3.5 3 -0.5
v -3.5 2 -0.5
v -1.5 0 0.5
v -1.5 1 0.5
v -1.5 1 -0.5
v -1.5 0 -0.5
v -2.5 4 0.5
v -2.5 5 0.5
v -2.5 5 -0.5
v -2.5 4 -0.5
v -3.5 4 0.5
v -3.5 4 -0.5
v -1.5 5 0.5
v -1.5 6 0.5
v -1.5 6 -0.5
v -1.5 5 -0.5
v -2.5 1 0.5
v -2.5 2 0.5
v -2.5 2 -0.5
v -2.5 1 -0.5
v 2.5 3 0.5
v 2.5 3 -0.5
v 2.5 4 -0.5
v 2.5 4 0.5
v 2.5 2 0.5
v 2.5 2 -0.5
v 0.5 0 0.5
v 0.5 0 -0.5
v 0.5 1 -0.5
v 0.5 1 0.5
v 0.5 5 0.5
v 0.5 5 -0.5
v 0.5 6 -0.5
v 0.5 6 0.5
v 1.5 4 0.5
v 1.5 4 -0.5
v 1.5 5 -0.5
v 1.5 5 0.5
v 1.5 1 0.5
v 1.5 1 -0.5
v 1.5 2 -0.5
v 1.5 2 0.5
v -0.5 3 0.5
v 0.5 3 0.5
v 0.5 4 0.5
v -0.5 4 0.5
v 1.5 3 0.5
v -0.5 1 0.5
v 0.5 2 0.5
v -0.5 2 0.5
v -2.5 3 0.5
v -1.5 3 0.5
v -1.5 4 0.5
v -0.5 5 0.5
v -0.5 0 0.5
v -0.5 6 0.5
v -1.5 2 0.5
v -0.5 3 -0.5
v -0.5 4 -0.5
v 0.5 4 -0.5
v 0.5 3 -0.5
v 1.5 3 -0.5
v -0.5 1 -0.5
v -0.5 2 -0.5
v 0.5 2 -0.5
v -2.5 3 -0.5
v -1.5 4 -0.5
v -1.5 3 -0.5
v -0.5 5 -0.5
v -0.5 0 -0.5
v -0.5 6 -0.5
v -1.5 2 -0.5

# faces

usemtl palette

f 1/1/1 2/1/1 3/1/1 4/1/1

f 5/1/1 6/1/1 7/1/1 8/1/1

f 9/1/1 10/1/1 11/1/1 12/1/1

f 2/1/1 13/1/1 14/1/1 3/1/1

f 15/1/1 16/1/1 17/1/1 18/1/1

f 19/1/1 20/1/1 21/1/1 22/1/1

f 23/1/2 24/1/2 25/1/2 26/1/2

f 27/1/2 28/1/2 24/1/2 23/1/2

f 29/1/2 30/1/2 31/1/2 32/1/2

f 33/1/2 34/1/2 35/1/2 36/1/2

f 37/1/2 38/1/2 39/1/2 40/1/2

f 41/1/2 42/1/2 43/1/2 44/1/2

f 45/1/3 46/1/3 47/1/3 48/1/3

f 49/1/3 23/1/3 26/1/3 37/1/3

f 50/1/3 32/1/3 51/1/3 52/1/3

f 44/1/3 27/1/3 23/1/3 49/1/3

f 52/1/3 51/1/3 46/1/3 45/1/3

f 1/1/3 20/1/3 53/1/3 2/1/3

f 53/1/3 54/1/3 55/1/3 9/1/3

f 46/1/3 49/1/3 37/1/3 47/1/3

f 48/1/3 47/1/3 33/1/3 56/1/3

f 5/1/3 57/1/3 50/1/3 6/1/3

f 55/1/3 48/1/3 56/1/3 15/1/3

f 57/1/3 29/1/3 32/1/3 50/1/3

f 56/1/3 33/1/3 36/1/3 58/1/3

f 59/1/3 52/1/3 45/1/3 54/1/3

f 9/1/3 55/1/3 15/1/3 10/1/3

f 51/1/3 44/1/3 49/1/3 46/1/3

f 6/1/3 50/1/3 52/1/3 59/1/3

f 47/1/3 37/1/3 40/1/3 33/1/3

f 54/1/3 45/1/3 48/1/3 55/1/3

f 2/1/3 53/1/3 9/1/3 13/1/3

f 20/1/3 59/1/3 54/1/3 53/1/3

f 15/1/3 56/1/3 58/1/3 16/1/3

f 32/1/3 41/1/3 44/1/3 51/1/3

f 19/1/3 6/1/3 59/1/3 20/1/3

f 60/1/4 61/1/4 62/1/4 63/1/4

f 64/1/4 38/1/4 25/1/4 24/1/4

f 65/1/4 66/1/4 67/1/4 31/1/4

f 43/1/4 64/1/4 24/1/4 28/1/4

f 66/1/4 60/1/4 63/1/4 67/1/4

f 4/1/4 3/1/4 68/1/4 21/1/4

f 68/1/4 12/1/4 69/1/4 70/1/4

f 63/1/4 62/1/4 38/1/4 64/1/4

f 61/1/4 71/1/4 34/1/4 62/1/4

f 8/1/4 7/1/4 65/1/4 72/1/4

f 69/1/4 18/1/4 71/1/4 61/1/4

f 72/1/4 65/1/4 31/1/4 30/1/4

f 71/1/4 73/1/4 35/1/4 34/1/4

f 74/1/4 70/1/4 60/1/4 66/1/4

f 12/1/4 11/1/4 18/1/4 69/1/4

f 67/1/4 63/1/4 64/1/4 43/1/4

f 7/1/4 74/1/4 66/1/4 65/1/4

f 62/1/4 34/1/4 39/1/4 38/1/4

f 70/1/4 69/1/4 61/1/4 60/1/4

f 3/1/4 14/1/4 12/1/4 68/1/4

f 21/1/4 68/1/4 70/1/4 74/1/4

f 18/1/4 17/1/4 73/1/4 71/1/4

f 31/1/4 67/1/4 43/1/4 42/1/4

f 22/1/4 21/1/4 74/1/4 7/1/4

f 44/1/5 43/1/5 28/1/5 27/1/5

f 1/1/5 4/1/5 21/1/5 20/1/5

f 5/1/5 8/1/5 72/1/5 57/1/5

f 57/1/5 72/1/5 30/1/5 29/1/5

f 32/1/5 31/1/5 42/1/5 41/1/5

f 19/1/5 22/1/5 7/1/5 6/1/5

f 37/1/6 26/1/6 25/1/6 38/1/6

f 58/1/6 36/1/6 35/1/6 73/1/6

f 10/1/6 15/1/6 18/1/6 11/1/6

f 33/1/6 40/1/6 39/1/6 34/1/6

f 13/1/6 9/1/6 12/1/6 14/1/6

f 16/1/6 58/1/6 73/1/6 17/1/6

# numNormals 6
# numTexCoords 1
# numVerts 74
# numFaces 72
