# MagicaVoxel @ ephtracy

# material
mtllib Gage.mtl

# normals
vn -1 0 0
vn 1 0 0
vn 0 0 1
vn 0 0 -1
vn 0 -1 0
vn 0 1 0

# texcoords
vt 0.974609 0.5

# verts
v -2.5 8 0.5
v -2.5 9 0.5
v -2.5 9 -0.5
v -2.5 8 -0.5
v -4.5 2 0.5
v -4.5 3 0.5
v -4.5 3 -0.5
v -4.5 2 -0.5
v -3.5 1 0.5
v -3.5 2 0.5
v -3.5 2 -0.5
v -3.5 1 -0.5
v -1.5 4 0.5
v -1.5 5 0.5
v -1.5 5 -0.5
v -1.5 4 -0.5
v 1.5 6 0.5
v 1.5 7 0.5
v 1.5 7 -0.5
v 1.5 6 -0.5
v -5.5 4 0.5
v -5.5 5 0.5
v -5.5 5 -0.5
v -5.5 4 -0.5
v 2.5 5 0.5
v 2.5 6 0.5
v 2.5 6 -0.5
v 2.5 5 -0.5
v 0.5 7 0.5
v 0.5 8 0.5
v 0.5 8 -0.5
v 0.5 7 -0.5
v -3.5 7 0.5
v -3.5 8 0.5
v -3.5 8 -0.5
v -3.5 7 -0.5
v -4.5 6 0.5
v -4.5 7 0.5
v -4.5 7 -0.5
v -4.5 6 -0.5
v 2.5 3 0.5
v 2.5 4 0.5
v 2.5 4 -0.5
v 2.5 3 -0.5
v 0.5 1 0.5
v 0.5 2 0.5
v 0.5 2 -0.5
v 0.5 1 -0.5
v -5.5 3 0.5
v -5.5 3 -0.5
v 1.5 2 0.5
v 1.5 3 0.5
v 1.5 3 -0.5
v 1.5 2 -0.5
v -2.5 0 0.5
v -2.5 1 0.5
v -2.5 1 -0.5
v -2.5 0 -0.5
v -5.5 6 0.5
v -5.5 6 -0.5
v 0.5 0 0.5
v 0.5 0 -0.5
v -3.5 3 -0.5
v -3.5 3 0.5
v -2.5 2 -0.5
v -2.5 2 0.5
v -0.5 4 0.5
v -0.5 4 -0.5
v -0.5 5 -0.5
v -0.5 5 0.5
v 0.5 9 -0.5
v 0.5 9 0.5
v 2.5 7 -0.5
v 2.5 7 0.5
v -4.5 4 0.5
v -4.5 4 -0.5
v -4.5 5 -0.5
v -4.5 5 0.5
v 3.5 5 0.5
v 3.5 5 -0.5
v 3.5 6 -0.5
v 3.5 6 0.5
v 1.5 8 -0.5
v 1.5 8 0.5
v -2.5 7 0.5
v -2.5 7 -0.5
v -3.5 6 0.5
v -3.5 6 -0.5
v 3.5 3 0.5
v 3.5 3 -0.5
v 3.5 4 -0.5
v 3.5 4 0.5
v 1.5 1 0.5
v 1.5 1 -0.5
v 2.5 2 0.5
v 2.5 2 -0.5
v -0.5 0 0.5
v -0.5 1 0.5
v -1.5 8 0.5
v -1.5 9 0.5
v -0.5 8 0.5
v -0.5 9 0.5
v -1.5 0 0.5
v -1.5 1 0.5
v -0.5 0 -0.5
v -0.5 1 -0.5
v -1.5 9 -0.5
v -1.5 8 -0.5
v -0.5 8 -0.5
v -0.5 9 -0.5
v -1.5 0 -0.5
v -1.5 1 -0.5

# faces

usemtl palette

f 1/1/1 2/1/1 3/1/1 4/1/1

f 5/1/1 6/1/1 7/1/1 8/1/1

f 9/1/1 10/1/1 11/1/1 12/1/1

f 13/1/1 14/1/1 15/1/1 16/1/1

f 17/1/1 18/1/1 19/1/1 20/1/1

f 21/1/1 22/1/1 23/1/1 24/1/1

f 25/1/1 26/1/1 27/1/1 28/1/1

f 29/1/1 30/1/1 31/1/1 32/1/1

f 33/1/1 34/1/1 35/1/1 36/1/1

f 37/1/1 38/1/1 39/1/1 40/1/1

f 41/1/1 42/1/1 43/1/1 44/1/1

f 45/1/1 46/1/1 47/1/1 48/1/1

f 49/1/1 21/1/1 24/1/1 50/1/1

f 51/1/1 52/1/1 53/1/1 54/1/1

f 55/1/1 56/1/1 57/1/1 58/1/1

f 42/1/1 25/1/1 28/1/1 43/1/1

f 22/1/1 59/1/1 60/1/1 23/1/1

f 61/1/2 62/1/2 48/1/2 45/1/2

f 10/1/2 11/1/2 63/1/2 64/1/2

f 56/1/2 57/1/2 65/1/2 66/1/2

f 67/1/2 68/1/2 69/1/2 70/1/2

f 30/1/2 31/1/2 71/1/2 72/1/2

f 26/1/2 27/1/2 73/1/2 74/1/2

f 75/1/2 76/1/2 77/1/2 78/1/2

f 79/1/2 80/1/2 81/1/2 82/1/2

f 18/1/2 19/1/2 83/1/2 84/1/2

f 85/1/2 86/1/2 4/1/2 1/1/2

f 87/1/2 88/1/2 36/1/2 33/1/2

f 89/1/2 90/1/2 91/1/2 92/1/2

f 93/1/2 94/1/2 54/1/2 51/1/2

f 6/1/2 7/1/2 76/1/2 75/1/2

f 95/1/2 96/1/2 44/1/2 41/1/2

f 92/1/2 91/1/2 80/1/2 79/1/2

f 78/1/2 77/1/2 40/1/2 37/1/2

f 97/1/3 61/1/3 45/1/3 98/1/3

f 1/1/3 99/1/3 100/1/3 2/1/3

f 5/1/3 10/1/3 64/1/3 6/1/3

f 9/1/3 56/1/3 66/1/3 10/1/3

f 13/1/3 67/1/3 70/1/3 14/1/3

f 101/1/3 30/1/3 72/1/3 102/1/3

f 17/1/3 26/1/3 74/1/3 18/1/3

f 21/1/3 75/1/3 78/1/3 22/1/3

f 103/1/3 97/1/3 98/1/3 104/1/3

f 25/1/3 79/1/3 82/1/3 26/1/3

f 29/1/3 18/1/3 84/1/3 30/1/3

f 33/1/3 85/1/3 1/1/3 34/1/3

f 37/1/3 87/1/3 33/1/3 38/1/3

f 41/1/3 89/1/3 92/1/3 42/1/3

f 45/1/3 93/1/3 51/1/3 46/1/3

f 49/1/3 6/1/3 75/1/3 21/1/3

f 51/1/3 95/1/3 41/1/3 52/1/3

f 55/1/3 103/1/3 104/1/3 56/1/3

f 42/1/3 92/1/3 79/1/3 25/1/3

f 99/1/3 101/1/3 102/1/3 100/1/3

f 22/1/3 78/1/3 37/1/3 59/1/3

f 105/1/4 106/1/4 48/1/4 62/1/4

f 4/1/4 3/1/4 107/1/4 108/1/4

f 8/1/4 7/1/4 63/1/4 11/1/4

f 12/1/4 11/1/4 65/1/4 57/1/4

f 16/1/4 15/1/4 69/1/4 68/1/4

f 109/1/4 110/1/4 71/1/4 31/1/4

f 20/1/4 19/1/4 73/1/4 27/1/4

f 24/1/4 23/1/4 77/1/4 76/1/4

f 111/1/4 112/1/4 106/1/4 105/1/4

f 28/1/4 27/1/4 81/1/4 80/1/4

f 32/1/4 31/1/4 83/1/4 19/1/4

f 36/1/4 35/1/4 4/1/4 86/1/4

f 40/1/4 39/1/4 36/1/4 88/1/4

f 44/1/4 43/1/4 91/1/4 90/1/4

f 48/1/4 47/1/4 54/1/4 94/1/4

f 50/1/4 24/1/4 76/1/4 7/1/4

f 54/1/4 53/1/4 44/1/4 96/1/4

f 58/1/4 57/1/4 112/1/4 111/1/4

f 43/1/4 28/1/4 80/1/4 91/1/4

f 108/1/4 107/1/4 110/1/4 109/1/4

f 23/1/4 60/1/4 40/1/4 77/1/4

f 97/1/5 105/1/5 62/1/5 61/1/5

f 1/1/5 4/1/5 108/1/5 99/1/5

f 5/1/5 8/1/5 11/1/5 10/1/5

f 9/1/5 12/1/5 57/1/5 56/1/5

f 13/1/5 16/1/5 68/1/5 67/1/5

f 101/1/5 109/1/5 31/1/5 30/1/5

f 17/1/5 20/1/5 27/1/5 26/1/5

f 103/1/5 111/1/5 105/1/5 97/1/5

f 29/1/5 32/1/5 19/1/5 18/1/5

f 33/1/5 36/1/5 86/1/5 85/1/5

f 37/1/5 40/1/5 88/1/5 87/1/5

f 41/1/5 44/1/5 90/1/5 89/1/5

f 45/1/5 48/1/5 94/1/5 93/1/5

f 49/1/5 50/1/5 7/1/5 6/1/5

f 51/1/5 54/1/5 96/1/5 95/1/5

f 55/1/5 58/1/5 111/1/5 103/1/5

f 99/1/5 108/1/5 109/1/5 101/1/5

f 98/1/6 45/1/6 48/1/6 106/1/6

f 2/1/6 100/1/6 107/1/6 3/1/6

f 6/1/6 64/1/6 63/1/6 7/1/6

f 10/1/6 66/1/6 65/1/6 11/1/6

f 14/1/6 70/1/6 69/1/6 15/1/6

f 102/1/6 72/1/6 71/1/6 110/1/6

f 18/1/6 74/1/6 73/1/6 19/1/6

f 104/1/6 98/1/6 106/1/6 112/1/6

f 26/1/6 82/1/6 81/1/6 27/1/6

f 30/1/6 84/1/6 83/1/6 31/1/6

f 34/1/6 1/1/6 4/1/6 35/1/6

f 38/1/6 33/1/6 36/1/6 39/1/6

f 46/1/6 51/1/6 54/1/6 47/1/6

f 52/1/6 41/1/6 44/1/6 53/1/6

f 56/1/6 104/1/6 112/1/6 57/1/6

f 100/1/6 102/1/6 110/1/6 107/1/6

f 59/1/6 37/1/6 40/1/6 60/1/6

# numNormals 6
# numTexCoords 1
# numVerts 112
# numFaces 110
