# MagicaVoxel @ ephtracy

# material
mtllib Knappgul.mtl

# normals
vn -1 0 0
vn 1 0 0
vn 0 0 1
vn 0 0 -1
vn 0 -1 0
vn 0 1 0

# texcoords
vt 0.0214844 0.5

# verts
v -1.5 0 0.5
v -1.5 1 0.5
v -1.5 1 -0.5
v -1.5 0 -0.5
v -1.5 2 0.5
v -1.5 3 0.5
v -1.5 3 -0.5
v -1.5 2 -0.5
v 1.5 2 0.5
v 1.5 2 -0.5
v 1.5 3 -0.5
v 1.5 3 0.5
v 1.5 0 0.5
v 1.5 0 -0.5
v 1.5 1 -0.5
v 1.5 1 0.5
v -0.5 0 0.5
v -0.5 1 0.5
v -0.5 2 0.5
v -0.5 3 0.5
v 0.5 0 0.5
v 0.5 1 0.5
v 0.5 2 0.5
v 0.5 3 0.5
v -0.5 1 -0.5
v -0.5 0 -0.5
v -0.5 3 -0.5
v -0.5 2 -0.5
v 0.5 1 -0.5
v 0.5 0 -0.5
v 0.5 2 -0.5
v 0.5 3 -0.5

# faces

usemtl palette

f 1/1/1 2/1/1 3/1/1 4/1/1

f 5/1/1 6/1/1 7/1/1 8/1/1

f 2/1/1 5/1/1 8/1/1 3/1/1

f 9/1/2 10/1/2 11/1/2 12/1/2

f 13/1/2 14/1/2 15/1/2 16/1/2

f 16/1/2 15/1/2 10/1/2 9/1/2

f 1/1/3 17/1/3 18/1/3 2/1/3

f 5/1/3 19/1/3 20/1/3 6/1/3

f 17/1/3 21/1/3 22/1/3 18/1/3

f 23/1/3 9/1/3 12/1/3 24/1/3

f 19/1/3 23/1/3 24/1/3 20/1/3

f 21/1/3 13/1/3 16/1/3 22/1/3

f 22/1/3 16/1/3 9/1/3 23/1/3

f 18/1/3 22/1/3 23/1/3 19/1/3

f 2/1/3 18/1/3 19/1/3 5/1/3

f 4/1/4 3/1/4 25/1/4 26/1/4

f 8/1/4 7/1/4 27/1/4 28/1/4

f 26/1/4 25/1/4 29/1/4 30/1/4

f 31/1/4 32/1/4 11/1/4 10/1/4

f 28/1/4 27/1/4 32/1/4 31/1/4

f 30/1/4 29/1/4 15/1/4 14/1/4

f 29/1/4 31/1/4 10/1/4 15/1/4

f 25/1/4 28/1/4 31/1/4 29/1/4

f 3/1/4 8/1/4 28/1/4 25/1/4

f 1/1/5 4/1/5 26/1/5 17/1/5

f 17/1/5 26/1/5 30/1/5 21/1/5

f 21/1/5 30/1/5 14/1/5 13/1/5

f 6/1/6 20/1/6 27/1/6 7/1/6

f 24/1/6 12/1/6 11/1/6 32/1/6

f 20/1/6 24/1/6 32/1/6 27/1/6

# numNormals 6
# numTexCoords 1
# numVerts 32
# numFaces 30
