# MagicaVoxel @ ephtracy

# material
mtllib RusGun.mtl

# normals
vn -1 0 0
vn 1 0 0
vn 0 0 1
vn 0 0 -1
vn 0 -1 0
vn 0 1 0

# texcoords
vt 0.978516 0.5
vt 0.994141 0.5

# verts
v -10.5 1 3.5
v -10.5 2 3.5
v -10.5 2 2.5
v -10.5 1 2.5
v -13.5 1 3.5
v -13.5 2 3.5
v -13.5 2 2.5
v -13.5 1 2.5
v -13.5 3 3.5
v -13.5 3 2.5
v -13.5 0 3.5
v -13.5 0 2.5
v -9.5 0 3.5
v -9.5 1 3.5
v -9.5 1 2.5
v -9.5 0 2.5
v -9.5 2 2.5
v -9.5 2 3.5
v -12.5 1 3.5
v -12.5 1 2.5
v -12.5 2 2.5
v -12.5 2 3.5
v -8.5 2 3.5
v -8.5 2 2.5
v -8.5 3 2.5
v -8.5 3 3.5
v -12.5 0 3.5
v -12.5 0 2.5
v -8.5 0 3.5
v -8.5 0 2.5
v -8.5 1 2.5
v -8.5 1 3.5
v -12.5 3 3.5
v -11.5 2 3.5
v -11.5 3 3.5
v -10.5 3 3.5
v -9.5 3 3.5
v -12.5 3 2.5
v -11.5 3 2.5
v -11.5 2 2.5
v -10.5 3 2.5
v -9.5 3 2.5

# faces

usemtl palette

f 1/1/1 2/1/1 3/1/1 4/1/1

f 5/1/1 6/1/1 7/1/1 8/1/1

f 6/1/1 9/1/1 10/1/1 7/1/1

f 11/2/1 5/2/1 8/2/1 12/2/1

f 13/2/1 14/2/1 15/2/1 16/2/1

f 14/1/2 15/1/2 17/1/2 18/1/2

f 19/1/2 20/1/2 21/1/2 22/1/2

f 23/2/2 24/2/2 25/2/2 26/2/2

f 27/2/2 28/2/2 20/2/2 19/2/2

f 29/2/2 30/2/2 31/2/2 32/2/2

f 1/1/3 14/1/3 18/1/3 2/1/3

f 5/1/3 19/1/3 22/1/3 6/1/3

f 6/1/3 22/1/3 33/1/3 9/1/3

f 22/1/3 34/1/3 35/1/3 33/1/3

f 34/1/3 2/1/3 36/1/3 35/1/3

f 2/1/3 18/1/3 37/1/3 36/1/3

f 18/2/3 23/2/3 26/2/3 37/2/3

f 11/2/3 27/2/3 19/2/3 5/2/3

f 13/2/3 29/2/3 32/2/3 14/2/3

f 4/1/4 3/1/4 17/1/4 15/1/4

f 8/1/4 7/1/4 21/1/4 20/1/4

f 7/1/4 10/1/4 38/1/4 21/1/4

f 21/1/4 38/1/4 39/1/4 40/1/4

f 40/1/4 39/1/4 41/1/4 3/1/4

f 3/1/4 41/1/4 42/1/4 17/1/4

f 17/2/4 42/2/4 25/2/4 24/2/4

f 12/2/4 8/2/4 20/2/4 28/2/4

f 16/2/4 15/2/4 31/2/4 30/2/4

f 1/1/5 4/1/5 15/1/5 14/1/5

f 22/1/5 21/1/5 40/1/5 34/1/5

f 34/1/5 40/1/5 3/1/5 2/1/5

f 18/2/5 17/2/5 24/2/5 23/2/5

f 11/2/5 12/2/5 28/2/5 27/2/5

f 13/2/5 16/2/5 30/2/5 29/2/5

f 9/1/6 33/1/6 38/1/6 10/1/6

f 33/1/6 35/1/6 39/1/6 38/1/6

f 35/1/6 36/1/6 41/1/6 39/1/6

f 36/1/6 37/1/6 42/1/6 41/1/6

f 37/2/6 26/2/6 25/2/6 42/2/6

f 14/2/6 32/2/6 31/2/6 15/2/6

# numNormals 6
# numTexCoords 2
# numVerts 42
# numFaces 40
