# MagicaVoxel @ ephtracy

# material
mtllib RusLeg 1.mtl

# normals
vn -1 0 0
vn 1 0 0
vn 0 0 1
vn 0 0 -1
vn 0 -1 0
vn 0 1 0

# texcoords
vt 0.560547 0.5

# verts
v -11.5 0 5.5
v -11.5 1 5.5
v -11.5 1 4.5
v -11.5 0 4.5
v -11.5 0 6.5
v -11.5 1 6.5
v -11.5 2 5.5
v -11.5 2 4.5
v -10.5 0 5.5
v -10.5 0 4.5
v -10.5 1 4.5
v -10.5 1 5.5
v -10.5 0 6.5
v -10.5 1 6.5
v -10.5 2 4.5
v -10.5 2 5.5

# faces

usemtl palette

f 1/1/1 2/1/1 3/1/1 4/1/1

f 5/1/1 6/1/1 2/1/1 1/1/1

f 2/1/1 7/1/1 8/1/1 3/1/1

f 9/1/2 10/1/2 11/1/2 12/1/2

f 13/1/2 9/1/2 12/1/2 14/1/2

f 12/1/2 11/1/2 15/1/2 16/1/2

f 5/1/3 13/1/3 14/1/3 6/1/3

f 2/1/3 12/1/3 16/1/3 7/1/3

f 4/1/4 3/1/4 11/1/4 10/1/4

f 3/1/4 8/1/4 15/1/4 11/1/4

f 1/1/5 4/1/5 10/1/5 9/1/5

f 5/1/5 1/1/5 9/1/5 13/1/5

f 6/1/6 14/1/6 12/1/6 2/1/6

f 7/1/6 16/1/6 15/1/6 8/1/6

# numNormals 6
# numTexCoords 1
# numVerts 16
# numFaces 14
