# MagicaVoxel @ ephtracy

# material
mtllib RyssBody.mtl

# normals
vn -1 0 0
vn 1 0 0
vn 0 0 1
vn 0 0 -1
vn 0 -1 0
vn 0 1 0

# texcoords
vt 0.00585938 0.5
vt 0.232422 0.5
vt 0.560547 0.5
vt 0.841797 0.5
vt 0.845703 0.5
vt 0.966797 0.5
vt 0.978516 0.5
vt 0.994141 0.5

# verts
v -11.5 3 -8.5
v -11.5 4 -8.5
v -11.5 4 -9.5
v -11.5 3 -9.5
v -11.5 4 -10.5
v -11.5 3 -10.5
v -11.5 4 -11.5
v -11.5 3 -11.5
v -11.5 5 -8.5
v -11.5 5 -9.5
v -11.5 5 -10.5
v -11.5 5 -11.5
v -11.5 6 -8.5
v -11.5 6 -9.5
v -11.5 6 -10.5
v -11.5 6 -11.5
v -11.5 7 -8.5
v -11.5 7 -9.5
v -11.5 7 -10.5
v -11.5 7 -11.5
v -10.5 7 -8.5
v -10.5 8 -8.5
v -10.5 8 -9.5
v -10.5 7 -9.5
v -10.5 7 -10.5
v -10.5 8 -10.5
v -10.5 8 -11.5
v -10.5 7 -11.5
v -11.5 8 -10.5
v -11.5 9 -10.5
v -11.5 9 -11.5
v -11.5 8 -11.5
v -11.5 8 -9.5
v -11.5 9 -9.5
v -11.5 8 -8.5
v -11.5 9 -8.5
v -11.5 10 -8.5
v -11.5 10 -9.5
v -11.5 10 -10.5
v -11.5 10 -11.5
v -10.5 10 -8.5
v -10.5 11 -8.5
v -10.5 11 -9.5
v -10.5 10 -9.5
v -10.5 10 -10.5
v -10.5 11 -10.5
v -10.5 11 -11.5
v -10.5 10 -11.5
v -11.5 2 -8.5
v -11.5 2 -9.5
v -11.5 2 -10.5
v -11.5 2 -11.5
v -6.5 2 -10.5
v -6.5 2 -11.5
v -6.5 3 -11.5
v -6.5 3 -10.5
v -6.5 2 -9.5
v -6.5 3 -9.5
v -7.5 10 -8.5
v -7.5 10 -9.5
v -7.5 11 -9.5
v -7.5 11 -8.5
v -6.5 4 -10.5
v -6.5 4 -9.5
v -6.5 3 -8.5
v -6.5 4 -8.5
v -6.5 4 -11.5
v -6.5 5 -9.5
v -6.5 5 -8.5
v -6.5 5 -10.5
v -6.5 5 -11.5
v -6.5 6 -9.5
v -6.5 6 -8.5
v -6.5 6 -10.5
v -6.5 6 -11.5
v -6.5 7 -9.5
v -6.5 7 -8.5
v -6.5 7 -11.5
v -6.5 7 -10.5
v -7.5 7 -10.5
v -7.5 7 -11.5
v -7.5 8 -11.5
v -7.5 8 -10.5
v -7.5 7 -9.5
v -7.5 8 -9.5
v -7.5 7 -8.5
v -7.5 8 -8.5
v -6.5 8 -8.5
v -6.5 8 -9.5
v -6.5 9 -9.5
v -6.5 9 -8.5
v -6.5 8 -10.5
v -6.5 8 -11.5
v -6.5 9 -11.5
v -6.5 9 -10.5
v -6.5 10 -10.5
v -6.5 10 -9.5
v -6.5 10 -8.5
v -6.5 10 -11.5
v -7.5 10 -10.5
v -7.5 10 -11.5
v -7.5 11 -11.5
v -7.5 11 -10.5
v -6.5 2 -8.5
v -9.5 10 -8.5
v -8.5 10 -8.5
v -8.5 11 -8.5
v -9.5 11 -8.5
v -10.5 3 -8.5
v -9.5 3 -8.5
v -9.5 4 -8.5
v -10.5 4 -8.5
v -8.5 3 -8.5
v -7.5 3 -8.5
v -7.5 4 -8.5
v -8.5 4 -8.5
v -10.5 5 -8.5
v -9.5 5 -8.5
v -8.5 5 -8.5
v -7.5 5 -8.5
v -10.5 6 -8.5
v -9.5 6 -8.5
v -8.5 6 -8.5
v -7.5 6 -8.5
v -9.5 7 -8.5
v -8.5 7 -8.5
v -9.5 8 -8.5
v -9.5 9 -8.5
v -10.5 9 -8.5
v -8.5 8 -8.5
v -7.5 9 -8.5
v -8.5 9 -8.5
v -10.5 2 -8.5
v -9.5 2 -8.5
v -8.5 2 -8.5
v -7.5 2 -8.5
v -7.5 2 -11.5
v -7.5 3 -11.5
v -8.5 2 -11.5
v -8.5 3 -11.5
v -10.5 4 -11.5
v -10.5 3 -11.5
v -9.5 4 -11.5
v -9.5 3 -11.5
v -8.5 4 -11.5
v -7.5 4 -11.5
v -10.5 5 -11.5
v -9.5 5 -11.5
v -8.5 5 -11.5
v -7.5 5 -11.5
v -10.5 6 -11.5
v -9.5 6 -11.5
v -8.5 6 -11.5
v -7.5 6 -11.5
v -9.5 7 -11.5
v -8.5 7 -11.5
v -9.5 8 -11.5
v -8.5 8 -11.5
v -8.5 9 -11.5
v -7.5 9 -11.5
v -9.5 9 -11.5
v -10.5 9 -11.5
v -9.5 10 -11.5
v -8.5 10 -11.5
v -9.5 11 -11.5
v -8.5 11 -11.5
v -10.5 2 -11.5
v -9.5 2 -11.5
v -9.5 2 -9.5
v -9.5 2 -10.5
v -8.5 2 -10.5
v -8.5 2 -9.5
v -7.5 2 -10.5
v -7.5 2 -9.5
v -10.5 2 -9.5
v -10.5 2 -10.5
v -8.5 11 -9.5
v -9.5 11 -9.5
v -8.5 11 -10.5
v -9.5 11 -10.5

# faces

usemtl palette

f 1/7/1 2/7/1 3/7/1 4/7/1

f 4/7/1 3/7/1 5/7/1 6/7/1

f 6/7/1 5/7/1 7/7/1 8/7/1

f 2/7/1 9/7/1 10/7/1 3/7/1

f 3/7/1 10/7/1 11/7/1 5/7/1

f 5/7/1 11/7/1 12/7/1 7/7/1

f 9/7/1 13/7/1 14/7/1 10/7/1

f 10/7/1 14/7/1 15/7/1 11/7/1

f 11/7/1 15/7/1 16/7/1 12/7/1

f 13/7/1 17/7/1 18/7/1 14/7/1

f 14/5/1 18/5/1 19/5/1 15/5/1

f 15/7/1 19/7/1 20/7/1 16/7/1

f 21/1/1 22/1/1 23/1/1 24/1/1

f 25/1/1 26/1/1 27/1/1 28/1/1

f 24/1/1 23/1/1 26/1/1 25/1/1

f 29/3/1 30/3/1 31/3/1 32/3/1

f 33/3/1 34/3/1 30/3/1 29/3/1

f 35/3/1 36/3/1 34/3/1 33/3/1

f 36/6/1 37/6/1 38/6/1 34/6/1

f 30/6/1 39/6/1 40/6/1 31/6/1

f 34/6/1 38/6/1 39/6/1 30/6/1

f 41/6/1 42/6/1 43/6/1 44/6/1

f 45/6/1 46/6/1 47/6/1 48/6/1

f 44/6/1 43/6/1 46/6/1 45/6/1

f 49/7/1 1/7/1 4/7/1 50/7/1

f 51/7/1 6/7/1 8/7/1 52/7/1

f 50/7/1 4/7/1 6/7/1 51/7/1

f 53/7/2 54/7/2 55/7/2 56/7/2

f 57/7/2 53/7/2 56/7/2 58/7/2

f 59/6/2 60/6/2 61/6/2 62/6/2

f 58/7/2 56/7/2 63/7/2 64/7/2

f 65/7/2 58/7/2 64/7/2 66/7/2

f 56/7/2 55/7/2 67/7/2 63/7/2

f 66/7/2 64/7/2 68/7/2 69/7/2

f 64/7/2 63/7/2 70/7/2 68/7/2

f 63/7/2 67/7/2 71/7/2 70/7/2

f 69/7/2 68/7/2 72/7/2 73/7/2

f 68/7/2 70/7/2 74/7/2 72/7/2

f 70/7/2 71/7/2 75/7/2 74/7/2

f 73/7/2 72/7/2 76/7/2 77/7/2

f 74/7/2 75/7/2 78/7/2 79/7/2

f 72/5/2 74/5/2 79/5/2 76/5/2

f 80/1/2 81/1/2 82/1/2 83/1/2

f 84/1/2 80/1/2 83/1/2 85/1/2

f 86/1/2 84/1/2 85/1/2 87/1/2

f 88/3/2 89/3/2 90/3/2 91/3/2

f 92/3/2 93/3/2 94/3/2 95/3/2

f 89/3/2 92/3/2 95/3/2 90/3/2

f 90/6/2 95/6/2 96/6/2 97/6/2

f 91/6/2 90/6/2 97/6/2 98/6/2

f 95/6/2 94/6/2 99/6/2 96/6/2

f 100/6/2 101/6/2 102/6/2 103/6/2

f 60/6/2 100/6/2 103/6/2 61/6/2

f 104/7/2 57/7/2 58/7/2 65/7/2

f 105/6/3 106/6/3 107/6/3 108/6/3

f 106/6/3 59/6/3 62/6/3 107/6/3

f 109/7/3 110/7/3 111/7/3 112/7/3

f 113/7/3 114/7/3 115/7/3 116/7/3

f 110/2/3 113/2/3 116/2/3 111/2/3

f 1/7/3 109/7/3 112/7/3 2/7/3

f 114/7/3 65/7/3 66/7/3 115/7/3

f 2/7/3 112/7/3 117/7/3 9/7/3

f 112/7/3 111/7/3 118/7/3 117/7/3

f 111/2/3 116/2/3 119/2/3 118/2/3

f 116/7/3 115/7/3 120/7/3 119/7/3

f 115/7/3 66/7/3 69/7/3 120/7/3

f 9/7/3 117/7/3 121/7/3 13/7/3

f 117/7/3 118/7/3 122/7/3 121/7/3

f 118/5/3 119/5/3 123/5/3 122/5/3

f 119/7/3 120/7/3 124/7/3 123/7/3

f 120/7/3 69/7/3 73/7/3 124/7/3

f 13/7/3 121/7/3 21/7/3 17/7/3

f 121/5/3 122/5/3 125/5/3 21/5/3

f 122/7/3 123/7/3 126/7/3 125/7/3

f 123/5/3 124/5/3 86/5/3 126/5/3

f 124/7/3 73/7/3 77/7/3 86/7/3

f 21/1/3 125/1/3 127/1/3 22/1/3

f 22/8/3 127/8/3 128/8/3 129/8/3

f 125/4/3 126/4/3 130/4/3 127/4/3

f 126/1/3 86/1/3 87/1/3 130/1/3

f 130/8/3 87/8/3 131/8/3 132/8/3

f 127/1/3 130/1/3 132/1/3 128/1/3

f 132/6/3 131/6/3 59/6/3 106/6/3

f 128/5/3 132/5/3 106/5/3 105/5/3

f 129/6/3 128/6/3 105/6/3 41/6/3

f 35/3/3 22/3/3 129/3/3 36/3/3

f 87/3/3 88/3/3 91/3/3 131/3/3

f 131/6/3 91/6/3 98/6/3 59/6/3

f 36/6/3 129/6/3 41/6/3 37/6/3

f 41/6/3 105/6/3 108/6/3 42/6/3

f 49/7/3 133/7/3 109/7/3 1/7/3

f 133/7/3 134/7/3 110/7/3 109/7/3

f 134/7/3 135/7/3 113/7/3 110/7/3

f 136/7/3 104/7/3 65/7/3 114/7/3

f 135/7/3 136/7/3 114/7/3 113/7/3

f 137/7/4 138/7/4 55/7/4 54/7/4

f 139/7/4 140/7/4 138/7/4 137/7/4

f 8/7/4 7/7/4 141/7/4 142/7/4

f 142/7/4 141/7/4 143/7/4 144/7/4

f 140/7/4 145/7/4 146/7/4 138/7/4

f 144/7/4 143/7/4 145/7/4 140/7/4

f 138/7/4 146/7/4 67/7/4 55/7/4

f 7/7/4 12/7/4 147/7/4 141/7/4

f 141/7/4 147/7/4 148/7/4 143/7/4

f 143/7/4 148/7/4 149/7/4 145/7/4

f 145/7/4 149/7/4 150/7/4 146/7/4

f 146/7/4 150/7/4 71/7/4 67/7/4

f 12/7/4 16/7/4 151/7/4 147/7/4

f 147/7/4 151/7/4 152/7/4 148/7/4

f 148/7/4 152/7/4 153/7/4 149/7/4

f 149/7/4 153/7/4 154/7/4 150/7/4

f 150/7/4 154/7/4 75/7/4 71/7/4

f 154/7/4 81/7/4 78/7/4 75/7/4

f 16/7/4 20/7/4 28/7/4 151/7/4

f 151/7/4 28/7/4 155/7/4 152/7/4

f 152/7/4 155/7/4 156/7/4 153/7/4

f 153/7/4 156/7/4 81/7/4 154/7/4

f 155/3/4 157/3/4 158/3/4 156/3/4

f 28/1/4 27/1/4 157/1/4 155/1/4

f 156/1/4 158/1/4 82/1/4 81/1/4

f 158/3/4 159/3/4 160/3/4 82/3/4

f 157/3/4 161/3/4 159/3/4 158/3/4

f 27/3/4 162/3/4 161/3/4 157/3/4

f 162/6/4 48/6/4 163/6/4 161/6/4

f 159/6/4 164/6/4 101/6/4 160/6/4

f 161/6/4 163/6/4 164/6/4 159/6/4

f 32/3/4 31/3/4 162/3/4 27/3/4

f 82/3/4 160/3/4 94/3/4 93/3/4

f 160/6/4 101/6/4 99/6/4 94/6/4

f 31/6/4 40/6/4 48/6/4 162/6/4

f 48/6/4 47/6/4 165/6/4 163/6/4

f 163/6/4 165/6/4 166/6/4 164/6/4

f 164/6/4 166/6/4 102/6/4 101/6/4

f 52/7/4 8/7/4 142/7/4 167/7/4

f 167/7/4 142/7/4 144/7/4 168/7/4

f 168/7/4 144/7/4 140/7/4 139/7/4

f 169/7/5 170/7/5 171/7/5 172/7/5

f 173/7/5 137/7/5 54/7/5 53/7/5

f 174/7/5 173/7/5 53/7/5 57/7/5

f 171/7/5 139/7/5 137/7/5 173/7/5

f 175/3/5 176/3/5 170/3/5 169/3/5

f 172/3/5 171/3/5 173/3/5 174/3/5

f 29/3/5 32/3/5 27/3/5 26/3/5

f 33/3/5 29/3/5 26/3/5 23/3/5

f 35/3/5 33/3/5 23/3/5 22/3/5

f 87/3/5 85/3/5 89/3/5 88/3/5

f 83/3/5 82/3/5 93/3/5 92/3/5

f 85/3/5 83/3/5 92/3/5 89/3/5

f 49/7/5 50/7/5 175/7/5 133/7/5

f 133/7/5 175/7/5 169/7/5 134/7/5

f 134/7/5 169/7/5 172/7/5 135/7/5

f 136/7/5 174/7/5 57/7/5 104/7/5

f 135/7/5 172/7/5 174/7/5 136/7/5

f 51/7/5 52/7/5 167/7/5 176/7/5

f 50/7/5 51/7/5 176/7/5 175/7/5

f 176/7/5 167/7/5 168/7/5 170/7/5

f 170/7/5 168/7/5 139/7/5 171/7/5

f 108/6/6 107/6/6 177/6/6 178/6/6

f 107/6/6 62/6/6 61/6/6 177/6/6

f 178/6/6 177/6/6 179/6/6 180/6/6

f 17/7/6 21/7/6 24/7/6 18/7/6

f 86/7/6 77/7/6 76/7/6 84/7/6

f 18/5/6 24/5/6 25/5/6 19/5/6

f 80/7/6 79/7/6 78/7/6 81/7/6

f 84/5/6 76/5/6 79/5/6 80/5/6

f 19/7/6 25/7/6 28/7/6 20/7/6

f 60/6/6 97/6/6 96/6/6 100/6/6

f 59/6/6 98/6/6 97/6/6 60/6/6

f 100/6/6 96/6/6 99/6/6 101/6/6

f 37/6/6 41/6/6 44/6/6 38/6/6

f 39/6/6 45/6/6 48/6/6 40/6/6

f 38/6/6 44/6/6 45/6/6 39/6/6

f 42/6/6 108/6/6 178/6/6 43/6/6

f 46/6/6 180/6/6 165/6/6 47/6/6

f 43/6/6 178/6/6 180/6/6 46/6/6

f 180/6/6 179/6/6 166/6/6 165/6/6

f 179/6/6 103/6/6 102/6/6 166/6/6

f 177/6/6 61/6/6 103/6/6 179/6/6

# numNormals 6
# numTexCoords 8
# numVerts 180
# numFaces 178
