# MagicaVoxel @ ephtracy

# material
mtllib Machingun.mtl

# normals
vn -1 0 0
vn 1 0 0
vn 0 0 1
vn 0 0 -1
vn 0 -1 0
vn 0 1 0

# texcoords
vt 0.994141 0.5

# verts
v -2.5 0 0.5
v -2.5 1 0.5
v -2.5 1 -0.5
v -2.5 0 -0.5
v 2.5 0 0.5
v 2.5 0 -0.5
v 2.5 1 -0.5
v 2.5 1 0.5
v -1.5 0 0.5
v -0.5 0 0.5
v -0.5 1 0.5
v -1.5 1 0.5
v 0.5 0 0.5
v 1.5 0 0.5
v 1.5 1 0.5
v 0.5 1 0.5
v -1.5 0 -0.5
v -1.5 1 -0.5
v -0.5 1 -0.5
v -0.5 0 -0.5
v 0.5 0 -0.5
v 0.5 1 -0.5
v 1.5 1 -0.5
v 1.5 0 -0.5

# faces

usemtl palette

f 1/1/1 2/1/1 3/1/1 4/1/1

f 5/1/2 6/1/2 7/1/2 8/1/2

f 9/1/3 10/1/3 11/1/3 12/1/3

f 1/1/3 9/1/3 12/1/3 2/1/3

f 13/1/3 14/1/3 15/1/3 16/1/3

f 10/1/3 13/1/3 16/1/3 11/1/3

f 14/1/3 5/1/3 8/1/3 15/1/3

f 17/1/4 18/1/4 19/1/4 20/1/4

f 4/1/4 3/1/4 18/1/4 17/1/4

f 21/1/4 22/1/4 23/1/4 24/1/4

f 20/1/4 19/1/4 22/1/4 21/1/4

f 24/1/4 23/1/4 7/1/4 6/1/4

f 9/1/5 17/1/5 20/1/5 10/1/5

f 1/1/5 4/1/5 17/1/5 9/1/5

f 13/1/5 21/1/5 24/1/5 14/1/5

f 10/1/5 20/1/5 21/1/5 13/1/5

f 14/1/5 24/1/5 6/1/5 5/1/5

f 12/1/6 11/1/6 19/1/6 18/1/6

f 2/1/6 12/1/6 18/1/6 3/1/6

f 16/1/6 15/1/6 23/1/6 22/1/6

f 11/1/6 16/1/6 22/1/6 19/1/6

f 15/1/6 8/1/6 7/1/6 23/1/6

# numNormals 6
# numTexCoords 1
# numVerts 24
# numFaces 22
